# xmcd
#
# Track frame offsets: 
#        150
#        29837
#        49667
#        65642
#        77842
#        91550
#        104380
#        124922
#        141127
#        157905
#        178075
#        192347
#        203772
#        214775
#        228872
#        243877
#        255652
#        276725
#        294130
#
# Disc length: 4263 seconds
#
# Revision: 1
# Processed by: cddbd v1.5.1PL0 Copyright (c) Steve Scherf et al.
# Submitted via: ExactAudioCopy v0.90b4
#
DISCID=1210a513
DTITLE=Various Artist - Love Jazz Piano
DYEAR=2002
DGENRE=Jazz
TTITLE0=Softry As In A Morning Sunrise/Sonny Clark
TTITLE1=Cleopatora's Dream/Bud Powell
TTITLE2=I Can't Get Started/John Lewis
TTITLE3=Take The A Train/Phineas Newbron Jr.
TTITLE4=Misty/Ray Bryant
TTITLE5=Blue Skies/Art Tatum
TTITLE6=Dream Gypsy/Bill Evans&Jim Hall
TTITLE7=My One And Only Love/Chick Corea
TTITLE8=Someone To Watch Over Me/McCoy Tyner
TTITLE9=Black Coffee/Duke Pearson
TTITLE10=Invitation/Paul Smith
TTITLE11=Summer Time/Hank Jones
TTITLE12=Stella By Starlight/Kenny Drew
TTITLE13=Polka Dots And Moonbeams/Nat King Cole
TTITLE14=It Could Happen To You/Horage Parlan
TTITLE15=What's New/George Shearing
TTITLE16=Willow Weep For Me/The Three Sounds
TTITLE17=I Should Care/Duke Jordan
TTITLE18=What A Difference A Day Made/Jacky Terrasson
EXTD=YEAR: 2002
EXTT0=
EXTT1=
EXTT2=
EXTT3=
EXTT4=
EXTT5=
EXTT6=
EXTT7=
EXTT8=
EXTT9=
EXTT10=
EXTT11=
EXTT12=
EXTT13=
EXTT14=
EXTT15=
EXTT16=
EXTT17=
EXTT18=
PLAYORDER=
